<svg xmlns="http://www.w3.org/2000/svg" x="0px" y="0px" viewBox="0 0 180 21"><path style="fill: #303030;" d="M0,21V0h9.4c1.3,0,2.4,0.5,3.3,1.4c0.9,0.9,1.4,2,1.4,3.3v1.1c0,1.4-0.4,2.5-1.2,3.2c-0.8,0.8-1.9,1.3-3.5,1.4 c1.6,0,2.7,0.5,3.5,1.4c0.8,0.9,1.2,2,1.2,3.3v1.1c0,1.3-0.5,2.4-1.4,3.3c-0.9,0.9-2,1.4-3.3,1.4H0z M4.7,9.3H7 c0.7,0,1.2-0.2,1.7-0.7c0.5-0.5,0.7-1,0.7-1.6V4.7C9.4,4,9.1,3.5,8.7,3C8.2,2.6,7.7,2.3,7,2.3H4.7V9.3z M4.7,18.7H7 c0.7,0,1.2-0.2,1.7-0.7c0.5-0.5,0.7-1,0.7-1.7V14c0-1.5-0.8-2.3-2.4-2.3H4.7V18.7z"/><path style="fill: #303030;" d="M18.7,21V4.7c0-1.3,0.5-2.4,1.4-3.3C21,0.5,22.1,0,23.4,0h4.7c1.3,0,2.4,0.5,3.3,1.4c0.9,0.9,1.4,2,1.4,3.3V21 h-4.7v-9.3h-4.7V21H18.7z M23.4,9.3h4.7V4.7c0-0.7-0.2-1.2-0.7-1.7c-0.5-0.5-1-0.7-1.7-0.7c-0.6,0-1.2,0.2-1.6,0.7 c-0.5,0.5-0.7,1-0.7,1.7V9.3z"/><path style="fill: #303030;" d="M49.1,4.7h-2.3c-0.2-1.6-0.9-2.4-2.2-2.4c-0.8,0-1.4,0.2-1.9,0.6c-0.4,0.4-0.6,1-0.6,1.8 c0,0.6,0.2,1.1,0.7,1.7l5,5.5c0.9,1,1.4,2.1,1.4,3.3v1.1c0,1.3-0.5,2.4-1.4,3.3c-0.9,0.9-2,1.4-3.3,1.4h-2.3 c-1.6,0-2.7-0.4-3.5-1.2c-0.8-0.8-1.2-1.9-1.2-3.5h2.4c0,0.2,0,0.3,0,0.4c0,0.6,0.2,1.1,0.7,1.5c0.5,0.3,1,0.5,1.6,0.5 c0.8,0,1.4-0.2,1.8-0.6c0.4-0.4,0.5-1,0.5-1.7c0-0.6-0.2-1.1-0.7-1.7l-5-5.5c-0.9-1-1.4-2.1-1.4-3.3V4.7c0-1.3,0.5-2.4,1.4-3.3 c0.9-0.9,2-1.4,3.3-1.4h2.3C47.4,0,48.9,1.6,49.1,4.7z"/><path style="fill: #303030;" d="M58.4,21v-9.3c-3.1-0.4-4.7-1.9-4.7-4.7V0h4.7v7c0,0.6,0.2,1.2,0.7,1.6c0.5,0.5,1,0.7,1.6,0.7 c0.7,0,1.2-0.2,1.7-0.7c0.5-0.5,0.7-1,0.7-1.6V0h4.7v7c0,2.7-1.6,4.3-4.7,4.7V21H58.4z"/><path style="fill: #303030;" d="M77.2,0h4.7c1.3,0,2.4,0.5,3.3,1.4c0.9,0.9,1.4,2,1.4,3.3v11.6c0,1.3-0.5,2.4-1.4,3.3c-0.9,0.9-2,1.4-3.3,1.4 h-4.7c-1.3,0-2.4-0.5-3.3-1.4c-0.9-0.9-1.4-2-1.4-3.3V4.7c0-1.3,0.5-2.4,1.4-3.3C74.8,0.5,75.9,0,77.2,0z M77.2,4.7v11.6 c0,0.6,0.2,1.2,0.7,1.7c0.5,0.5,1,0.7,1.6,0.7c0.7,0,1.2-0.2,1.7-0.7c0.5-0.5,0.7-1,0.7-1.7V4.7c0-0.7-0.2-1.2-0.7-1.7 c-0.5-0.5-1-0.7-1.7-0.7c-0.6,0-1.2,0.2-1.6,0.7C77.4,3.5,77.2,4,77.2,4.7z"/><path style="fill: #303030;" d="M98.2,21V0h4.7v8.6l7.6-8.6h4.1l-9.4,10.5l9.4,10.5h-4.7l-7-8.2V21H98.2z"/><path style="fill: #303030;" d="M119.2,21V4.7c0-1.3,0.5-2.4,1.4-3.3c0.9-0.9,2-1.4,3.3-1.4h4.7c1.3,0,2.4,0.5,3.3,1.4c0.9,0.9,1.4,2,1.4,3.3 V21h-4.7v-9.3h-4.7V21H119.2z M123.9,9.3h4.7V4.7c0-0.7-0.2-1.2-0.7-1.7c-0.5-0.5-1-0.7-1.7-0.7c-0.6,0-1.2,0.2-1.6,0.7 c-0.5,0.5-0.7,1-0.7,1.7V9.3z"/><path style="fill: #303030;" d="M149.6,4.7h-2.3c-0.2-1.6-0.9-2.4-2.2-2.4c-0.8,0-1.4,0.2-1.9,0.6c-0.4,0.4-0.6,1-0.6,1.8 c0,0.6,0.2,1.1,0.7,1.7l5,5.5c0.9,1,1.4,2.1,1.4,3.3v1.1c0,1.3-0.5,2.4-1.4,3.3c-0.9,0.9-2,1.4-3.3,1.4h-2.3 c-1.6,0-2.7-0.4-3.5-1.2c-0.8-0.8-1.2-1.9-1.2-3.5h2.4c0,0.2,0,0.3,0,0.4c0,0.6,0.2,1.1,0.7,1.5c0.5,0.3,1,0.5,1.6,0.5 c0.8,0,1.4-0.2,1.8-0.6c0.4-0.4,0.5-1,0.5-1.7c0-0.6-0.2-1.1-0.7-1.7l-5-5.5c-0.9-1-1.4-2.1-1.4-3.3V4.7c0-1.3,0.5-2.4,1.4-3.3 c0.9-0.9,2-1.4,3.3-1.4h2.3C147.9,0,149.4,1.6,149.6,4.7z"/><path style="fill: #303030;" d="M154.3,21V0h4.7v9.3h4.7V0h4.7v21h-4.7v-9.3H159V21H154.3z"/><path style="fill: #303030;" d="M175.3,21V0h4.7v21H175.3z"/></svg>
